<svg width="96" height="27" viewBox="0 0 96 27" fill="none" xmlns="http://www.w3.org/2000/svg">
<path d="M11.16 24.52C10.7333 24.4667 10.3333 24.44 9.96 24.44C9.61333 24.4133 9.37333 24.4 9.24 24.4C9.13333 24.3733 9.08 24.32 9.08 24.24C8.89333 23.3867 8.76 22.64 8.68 22C8.6 21.3333 8.54667 20.72 8.52 20.16C8.49333 19.36 8.42667 18.5733 8.32 17.8C8.24 17 8.05333 15.9467 7.76 14.64C6.26667 14.88 5.26667 15 4.76 15C4.22667 15 3.82667 14.9067 3.56 14.72C3.29333 14.5067 3.16 14.1733 3.16 13.72C3.16 13.4533 3.30667 13.32 3.6 13.32L4.8 13.2C4.98667 13.1733 5.84 13.0667 7.36 12.88C7.30667 12.1067 7.2 10.52 7.04 8.12C6.96 6.2 6.84 4.66667 6.68 3.52L1.68 3.96C1.30667 4.2 1.01333 4.32 0.8 4.32C0.48 4.08 0.28 3.77333 0.2 3.4C0.84 2.70667 2.37333 2.13333 4.8 1.68C7.25333 1.22667 9.90667 0.999999 12.76 0.999999C16.3333 0.999999 19.4 1.38667 21.96 2.16C24.52 2.90667 25.9067 4.06667 26.12 5.64C25.2933 5.64 24.4933 5.54667 23.72 5.36C22.9467 5.17333 21.9733 4.89333 20.8 4.52C19.3067 4.01333 17.9333 3.62667 16.68 3.36C15.4533 3.09333 14.0667 2.96 12.52 2.96C11.5333 2.96 10.4533 3.04 9.28 3.2C9.28 5.68 9.34667 8.81333 9.48 12.6L10.88 12.48C15.1467 12.1333 17.64 11.96 18.36 11.96C18.7067 11.96 18.9467 11.9867 19.08 12.04C19.2133 12.0667 19.32 12.12 19.4 12.2C19.4267 13 18.6667 13.5733 17.12 13.92C15.5733 14.24 13.12 14.4667 9.76 14.6C9.89333 15.9067 10.1467 17.6133 10.52 19.72C10.8667 21.6933 11.08 23.2933 11.16 24.52ZM40.8975 25.04C40.1508 25.04 39.6308 24.6533 39.3375 23.88C39.0442 23.1067 38.8042 22.0667 38.6175 20.76L38.4975 19.76C38.0975 17.6267 37.7775 15.5067 37.5375 13.4C37.2975 11.2667 37.0575 8.69333 36.8175 5.68L36.5775 2.72C34.9775 2.74666 32.6975 2.68 29.7375 2.52L28.9375 2.48C28.5642 2.45333 28.2975 2.28 28.1375 1.96C28.0042 1.61333 27.9375 1.14667 27.9375 0.56H30.6975C35.3375 0.56 39.5242 0.733333 43.2575 1.08C46.9908 1.42666 48.8575 2.13333 48.8575 3.2C48.8575 3.49333 48.8042 3.69333 48.6975 3.8C48.6175 3.90667 48.4308 3.96 48.1375 3.96C47.0708 3.88 45.4175 3.65333 43.1775 3.28C42.6708 3.2 42.0575 3.10667 41.3375 3C40.6175 2.89333 39.8042 2.78667 38.8975 2.68C38.8975 6.54667 39.4708 12.4933 40.6175 20.52C40.6708 20.92 40.8575 21.4933 41.1775 22.24C41.3108 22.56 41.4308 22.9067 41.5375 23.28C41.6708 23.6267 41.7375 23.9467 41.7375 24.24C41.7375 24.6133 41.6842 24.84 41.5775 24.92C41.4708 25 41.3375 25.04 41.1775 25.04C41.0442 25.04 40.9508 25.04 40.8975 25.04ZM71.6272 26.36C71.4405 26.5733 71.1739 26.68 70.8272 26.68C69.5739 26.68 67.5739 25.5333 64.8272 23.24C62.1072 20.92 59.6939 18.6133 57.5872 16.32C57.7205 17.04 57.9739 18.2533 58.3472 19.96C58.5072 20.6267 58.6405 21.2667 58.7472 21.88C58.8805 22.4933 58.9472 22.9733 58.9472 23.32C58.9472 24.0933 58.6672 24.56 58.1072 24.72C57.9739 25.0667 57.6139 24.2 57.0272 22.12C56.4672 20.04 55.9339 17.64 55.4272 14.92C54.9472 12.1733 54.7072 9.88 54.7072 8.04C54.7072 7.10667 54.7872 6.34667 54.9472 5.76C55.2939 5.49333 55.5872 5.36 55.8272 5.36C56.3072 5.36 56.6405 5.77333 56.8272 6.6C57.0139 7.4 57.1872 8.66667 57.3472 10.4L57.4272 11.32C58.4672 11.2667 59.8805 11.04 61.6672 10.64C63.4805 10.24 65.0939 9.69333 66.5072 9C67.9472 8.28 68.6672 7.42667 68.6672 6.44C68.6672 5.90667 68.2805 5.32 67.5072 4.68C66.7605 4.01333 65.6005 3.45333 64.0272 3C62.4805 2.54667 60.5739 2.32 58.3072 2.32H57.0272C55.5072 2.32 54.3205 2.57333 53.4672 3.08C52.6139 3.56 52.1872 4.6 52.1872 6.2C51.7872 6.2 51.4272 5.94667 51.1072 5.44C50.7872 4.93333 50.6272 4.46667 50.6272 4.04C50.6272 2.38667 51.4139 1.30667 52.9872 0.799999C54.5872 0.293333 56.8805 0.0399995 59.8672 0.0399995C61.4405 0.0399995 63.0805 0.293333 64.7872 0.799999C66.4939 1.30667 67.9339 2.10667 69.1072 3.2C70.2805 4.26667 70.8672 5.6 70.8672 7.2C70.8672 8.29333 70.3739 9.2 69.3872 9.92C68.4272 10.64 67.2939 11.2 65.9872 11.6C64.6805 12 63.0805 12.4133 61.1872 12.84C59.6139 13.1867 58.5872 13.44 58.1072 13.6C60.1605 16.3733 62.1339 18.5333 64.0272 20.08C65.9472 21.6267 67.9472 23.0267 70.0272 24.28C70.7472 24.7067 71.2539 25.0267 71.5472 25.24C71.8405 25.4533 71.9872 25.6533 71.9872 25.84C71.9872 26.0267 71.8672 26.2 71.6272 26.36ZM83.4166 25.04C80.2699 25.04 78.0299 23.6267 76.6966 20.8C75.3899 17.9733 74.6299 14.2933 74.4166 9.76C74.3899 9.36 74.3766 8.78667 74.3766 8.04C74.3766 6.52 74.5632 5.34667 74.9366 4.52C75.3366 3.66667 76.0699 3.24 77.1366 3.24C77.4299 3.24 77.6566 3.32 77.8166 3.48C77.9766 3.61333 78.0566 3.8 78.0566 4.04C78.0566 4.54667 77.7499 5.04 77.1366 5.52C76.7899 5.52 76.5499 5.74667 76.4166 6.2C76.3099 6.65333 76.2566 7.34667 76.2566 8.28C76.2566 9.13333 76.2699 9.81333 76.2966 10.32C76.4566 14.2933 77.1899 17.44 78.4966 19.76C79.8032 22.0533 81.6166 23.2 83.9366 23.2C85.2699 23.2 86.4699 22.88 87.5366 22.24C88.6032 21.6 89.4299 20.7467 90.0166 19.68C90.6299 18.5867 90.9366 17.4133 90.9366 16.16C90.6699 13.9733 90.4566 12.44 90.2966 11.56C90.1366 10.68 89.8432 9.25333 89.4166 7.28C89.2299 6.50667 89.1366 5.82667 89.1366 5.24C89.1366 4.62667 89.2566 4.2 89.4966 3.96C89.7366 3.72 90.0966 3.6 90.5766 3.6C90.8699 3.6 91.0966 3.77333 91.2566 4.12C91.4166 4.46667 91.5632 5.14667 91.6966 6.16C91.8299 7.17333 92.0032 8.82667 92.2166 11.12C92.3499 12.4267 92.6032 13.7067 92.9766 14.96C93.3766 16.2133 93.8966 17.6533 94.5366 19.28C94.5899 19.44 94.7366 19.84 94.9766 20.48C95.2166 21.0933 95.3899 21.6 95.4966 22C95.6032 22.4 95.6566 22.72 95.6566 22.96C95.6566 23.5733 95.3366 23.88 94.6966 23.88C94.4832 23.88 93.6966 22.24 92.3366 18.96C92.0432 20.16 91.4432 21.2267 90.5366 22.16C89.6299 23.0667 88.5499 23.7733 87.2966 24.28C86.0432 24.7867 84.7499 25.04 83.4166 25.04Z" fill="black"/>
</svg>
