<svg width="287" height="81" viewBox="0 0 287 81" fill="none" xmlns="http://www.w3.org/2000/svg">
<path d="M33.48 73.56C32.2 73.4 31 73.32 29.88 73.32C28.84 73.24 28.12 73.2 27.72 73.2C27.4 73.12 27.24 72.96 27.24 72.72C26.68 70.16 26.28 67.92 26.04 66C25.8 64 25.64 62.16 25.56 60.48C25.48 58.08 25.28 55.72 24.96 53.4C24.72 51 24.16 47.84 23.28 43.92C18.8 44.64 15.8 45 14.28 45C12.68 45 11.48 44.72 10.68 44.16C9.88 43.52 9.48 42.52 9.48 41.16C9.48 40.36 9.92 39.96 10.8 39.96L14.4 39.6C14.96 39.52 17.52 39.2 22.08 38.64C21.92 36.32 21.6 31.56 21.12 24.36C20.88 18.6 20.52 14 20.04 10.56L5.04 11.88C3.92 12.6 3.04 12.96 2.4 12.96C1.44 12.24 0.84 11.32 0.6 10.2C2.52 8.12 7.12 6.4 14.4 5.04C21.76 3.68 29.72 3 38.28 3C49 3 58.2 4.16 65.88 6.48C73.56 8.72 77.72 12.2 78.36 16.92C75.88 16.92 73.48 16.64 71.16 16.08C68.84 15.52 65.92 14.68 62.4 13.56C57.92 12.04 53.8 10.88 50.04 10.08C46.36 9.28 42.2 8.88 37.56 8.88C34.6 8.88 31.36 9.12 27.84 9.6C27.84 17.04 28.04 26.44 28.44 37.8L32.64 37.44C45.44 36.4 52.92 35.88 55.08 35.88C56.12 35.88 56.84 35.96 57.24 36.12C57.64 36.2 57.96 36.36 58.2 36.6C58.28 39 56 40.72 51.36 41.76C46.72 42.72 39.36 43.4 29.28 43.8C29.68 47.72 30.44 52.84 31.56 59.16C32.6 65.08 33.24 69.88 33.48 73.56ZM122.693 75.12C120.453 75.12 118.893 73.96 118.013 71.64C117.133 69.32 116.413 66.2 115.853 62.28L115.493 59.28C114.293 52.88 113.333 46.52 112.613 40.2C111.893 33.8 111.173 26.08 110.453 17.04L109.733 8.16C104.933 8.23999 98.0925 8.03999 89.2125 7.56L86.8125 7.44C85.6925 7.36 84.8925 6.84 84.4125 5.88C84.0125 4.83999 83.8125 3.44 83.8125 1.68H92.0925C106.013 1.68 118.573 2.2 129.773 3.23999C140.973 4.27999 146.573 6.4 146.573 9.6C146.573 10.48 146.413 11.08 146.093 11.4C145.853 11.72 145.293 11.88 144.413 11.88C141.213 11.64 136.253 10.96 129.533 9.83999C128.013 9.6 126.173 9.32 124.013 9C121.853 8.68 119.413 8.36 116.693 8.04C116.693 19.64 118.413 37.48 121.853 61.56C122.013 62.76 122.573 64.48 123.533 66.72C123.933 67.68 124.293 68.72 124.613 69.84C125.013 70.88 125.213 71.84 125.213 72.72C125.213 73.84 125.053 74.52 124.733 74.76C124.413 75 124.013 75.12 123.533 75.12C123.133 75.12 122.853 75.12 122.693 75.12ZM214.882 79.08C214.322 79.72 213.522 80.04 212.482 80.04C208.722 80.04 202.722 76.6 194.482 69.72C186.322 62.76 179.082 55.84 172.762 48.96C173.162 51.12 173.922 54.76 175.042 59.88C175.522 61.88 175.922 63.8 176.242 65.64C176.642 67.48 176.842 68.92 176.842 69.96C176.842 72.28 176.002 73.68 174.322 74.16C173.922 75.2 172.842 72.6 171.082 66.36C169.402 60.12 167.802 52.92 166.282 44.76C164.842 36.52 164.122 29.64 164.122 24.12C164.122 21.32 164.362 19.04 164.842 17.28C165.882 16.48 166.762 16.08 167.482 16.08C168.922 16.08 169.922 17.32 170.482 19.8C171.042 22.2 171.562 26 172.042 31.2L172.282 33.96C175.402 33.8 179.642 33.12 185.002 31.92C190.442 30.72 195.282 29.08 199.522 27C203.842 24.84 206.002 22.28 206.002 19.32C206.002 17.72 204.842 15.96 202.522 14.04C200.282 12.04 196.802 10.36 192.082 9C187.442 7.64 181.722 6.96 174.922 6.96H171.082C166.522 6.96 162.962 7.72 160.402 9.24C157.842 10.68 156.562 13.8 156.562 18.6C155.362 18.6 154.282 17.84 153.322 16.32C152.362 14.8 151.882 13.4 151.882 12.12C151.882 7.16 154.242 3.92 158.962 2.4C163.762 0.879998 170.642 0.119998 179.602 0.119998C184.322 0.119998 189.242 0.879998 194.362 2.4C199.482 3.92 203.802 6.32 207.322 9.6C210.842 12.8 212.602 16.8 212.602 21.6C212.602 24.88 211.122 27.6 208.162 29.76C205.282 31.92 201.882 33.6 197.962 34.8C194.042 36 189.242 37.24 183.562 38.52C178.842 39.56 175.762 40.32 174.322 40.8C180.482 49.12 186.402 55.6 192.082 60.24C197.842 64.88 203.842 69.08 210.082 72.84C212.242 74.12 213.762 75.08 214.642 75.72C215.522 76.36 215.962 76.96 215.962 77.52C215.962 78.08 215.602 78.6 214.882 79.08ZM250.25 75.12C240.81 75.12 234.09 70.88 230.09 62.4C226.17 53.92 223.89 42.88 223.25 29.28C223.17 28.08 223.13 26.36 223.13 24.12C223.13 19.56 223.69 16.04 224.81 13.56C226.01 11 228.21 9.72 231.41 9.72C232.29 9.72 232.97 9.96 233.45 10.44C233.93 10.84 234.17 11.4 234.17 12.12C234.17 13.64 233.25 15.12 231.41 16.56C230.37 16.56 229.65 17.24 229.25 18.6C228.93 19.96 228.77 22.04 228.77 24.84C228.77 27.4 228.81 29.44 228.89 30.96C229.37 42.88 231.57 52.32 235.49 59.28C239.41 66.16 244.85 69.6 251.81 69.6C255.81 69.6 259.41 68.64 262.61 66.72C265.81 64.8 268.29 62.24 270.05 59.04C271.89 55.76 272.81 52.24 272.81 48.48C272.01 41.92 271.37 37.32 270.89 34.68C270.41 32.04 269.53 27.76 268.25 21.84C267.69 19.52 267.41 17.48 267.41 15.72C267.41 13.88 267.77 12.6 268.49 11.88C269.21 11.16 270.29 10.8 271.73 10.8C272.61 10.8 273.29 11.32 273.77 12.36C274.25 13.4 274.69 15.44 275.09 18.48C275.49 21.52 276.01 26.48 276.65 33.36C277.05 37.28 277.81 41.12 278.93 44.88C280.13 48.64 281.69 52.96 283.61 57.84C283.77 58.32 284.21 59.52 284.93 61.44C285.65 63.28 286.17 64.8 286.49 66C286.81 67.2 286.97 68.16 286.97 68.88C286.97 70.72 286.01 71.64 284.09 71.64C283.45 71.64 281.09 66.72 277.01 56.88C276.13 60.48 274.33 63.68 271.61 66.48C268.89 69.2 265.65 71.32 261.89 72.84C258.13 74.36 254.25 75.12 250.25 75.12Z" fill="#F0BFA3"/>
</svg>
