<svg width="2668" height="1963" viewBox="0 0 2668 1963" fill="none" xmlns="http://www.w3.org/2000/svg">
<g clip-path="url(#clip0_181_51)">
<rect width="2668" height="1963" fill="white"/>
<path fill-rule="evenodd" clip-rule="evenodd" d="M1200.68 114.447C1220.38 133.314 1205.74 165.885 1205.1 192.367C1204.51 217.108 1214.61 248.171 1197.1 263.802C1179.18 279.809 1149.15 260.824 1124.92 263.98C1105.75 266.477 1090.86 281.032 1071.3 280.191C1045.44 279.08 1013.06 280.708 997.061 258.484C981.085 236.289 999.424 207.642 1000.03 181.18C1000.6 156.706 989.701 130.411 1000.5 109.435C1011.88 87.3347 1033.36 67.181 1058.5 67.6211C1083.31 68.0553 1096.54 103.578 1120.71 111.54C1147.32 120.302 1179.86 94.499 1200.68 114.447Z" fill="#F1EEE9"/>
<path fill-rule="evenodd" clip-rule="evenodd" d="M790.683 1386.45C810.382 1405.31 795.736 1437.89 795.101 1464.37C794.508 1489.11 804.606 1520.17 787.104 1535.8C769.181 1551.81 739.147 1532.82 714.917 1535.98C695.755 1538.48 680.865 1553.03 661.304 1552.19C635.439 1551.08 603.058 1552.71 587.061 1530.48C571.085 1508.29 589.424 1479.64 590.035 1453.18C590.599 1428.71 579.701 1402.41 590.5 1381.44C601.879 1359.33 623.362 1339.18 648.502 1339.62C673.307 1340.06 686.536 1375.58 710.711 1383.54C737.318 1392.3 769.856 1366.5 790.683 1386.45Z" fill="#F0BFA3"/>
<path fill-rule="evenodd" clip-rule="evenodd" d="M676.147 691.241C697.05 693.223 711.89 714.759 731.043 725.383C757.61 740.119 801.329 730.756 809.856 765.405C818.44 800.281 776.324 822.273 762.86 854.664C752.652 879.22 758.704 914.131 741.062 930.904C723.374 947.72 698.348 938.853 676.147 937.102C655.488 935.472 633.428 936.712 616.94 921.113C600.598 905.652 597.782 877.974 589.137 854.784C578.931 827.405 556.436 802.689 561.821 773.254C567.215 743.771 593.798 729.449 614.827 714.363C633.799 700.753 654.319 689.171 676.147 691.241Z" fill="#F1EEE9"/>
<path fill-rule="evenodd" clip-rule="evenodd" d="M926.147 1612.24C947.05 1614.22 961.89 1635.76 981.043 1646.38C1007.61 1661.12 1051.33 1651.76 1059.86 1686.4C1068.44 1721.28 1026.32 1743.27 1012.86 1775.66C1002.65 1800.22 1008.7 1835.13 991.062 1851.9C973.374 1868.72 948.348 1859.85 926.147 1858.1C905.488 1856.47 883.428 1857.71 866.94 1842.11C850.598 1826.65 847.782 1798.97 839.137 1775.78C828.931 1748.41 806.436 1723.69 811.821 1694.25C817.215 1664.77 843.798 1650.45 864.827 1635.36C883.799 1621.75 904.319 1610.17 926.147 1612.24Z" fill="#F1EEE9"/>
<path fill-rule="evenodd" clip-rule="evenodd" d="M1627.15 57.2406C1648.05 59.2226 1662.89 80.7595 1682.04 91.3827C1708.61 106.119 1752.33 96.7559 1760.86 131.405C1769.44 166.281 1727.32 188.273 1713.86 220.664C1703.65 245.22 1709.7 280.131 1692.06 296.904C1674.37 313.72 1649.35 304.853 1627.15 303.102C1606.49 301.472 1584.43 302.712 1567.94 287.113C1551.6 271.652 1548.78 243.974 1540.14 220.784C1529.93 193.405 1507.44 168.689 1512.82 139.254C1518.21 109.771 1544.8 95.449 1565.83 80.3634C1584.8 66.7533 1605.32 55.171 1627.15 57.2406Z" fill="#F1EEE9"/>
<path fill-rule="evenodd" clip-rule="evenodd" d="M2007.15 257.241C2028.05 259.223 2042.89 280.759 2062.04 291.383C2088.61 306.119 2132.33 296.756 2140.86 331.405C2149.44 366.281 2107.32 388.273 2093.86 420.664C2083.65 445.22 2089.7 480.131 2072.06 496.904C2054.37 513.72 2029.35 504.853 2007.15 503.102C1986.49 501.472 1964.43 502.712 1947.94 487.113C1931.6 471.652 1928.78 443.974 1920.14 420.784C1909.93 393.405 1887.44 368.689 1892.82 339.254C1898.21 309.771 1924.8 295.449 1945.83 280.363C1964.8 266.753 1985.32 255.171 2007.15 257.241Z" fill="#F0BFA3"/>
<path fill-rule="evenodd" clip-rule="evenodd" d="M143.107 1203.98C139.065 1164.62 145.695 1115.92 169.607 1093.49C193.851 1070.74 226.187 1095.67 255.481 1098.55C271.969 1100.17 287.209 1102.78 303.495 1106.66C323.297 1111.38 346.582 1104.46 360.989 1123.69C375.812 1143.47 372.62 1176.09 376.421 1203.98C381.291 1239.71 401.793 1280 386.313 1309.51C370.848 1338.98 336.598 1325.9 310.297 1330.02C289.97 1333.19 270.411 1336.75 250.426 1330.75C228.417 1324.14 207.269 1314.11 190.195 1293.94C169.291 1269.25 146.956 1241.45 143.107 1203.98Z" fill="#F1EEE9"/>
<path fill-rule="evenodd" clip-rule="evenodd" d="M175.107 1837.98C171.065 1798.62 177.695 1749.92 201.607 1727.49C225.851 1704.74 258.187 1729.67 287.481 1732.55C303.969 1734.17 319.209 1736.78 335.495 1740.66C355.297 1745.38 378.582 1738.46 392.989 1757.69C407.812 1777.47 404.62 1810.09 408.421 1837.98C413.291 1873.71 433.793 1914 418.313 1943.51C402.848 1972.98 368.598 1959.9 342.297 1964.02C321.97 1967.19 302.411 1970.75 282.426 1964.75C260.417 1958.14 239.269 1948.11 222.195 1927.94C201.291 1903.25 178.956 1875.45 175.107 1837.98Z" fill="#F1EEE9"/>
<path fill-rule="evenodd" clip-rule="evenodd" d="M2364.11 176.976C2360.06 137.62 2366.69 88.9205 2390.61 66.4864C2414.85 43.7415 2447.19 68.6678 2476.48 71.5499C2492.97 73.172 2508.21 75.7777 2524.49 79.6584C2544.3 84.3769 2567.58 77.4646 2581.99 96.6908C2596.81 116.472 2593.62 149.088 2597.42 176.976C2602.29 212.713 2622.79 252.999 2607.31 282.506C2591.85 311.983 2557.6 298.903 2531.3 303.015C2510.97 306.193 2491.41 309.752 2471.43 303.75C2449.42 297.14 2428.27 287.111 2411.2 266.943C2390.29 242.25 2367.96 214.452 2364.11 176.976Z" fill="#F0BFA3"/>
<path fill-rule="evenodd" clip-rule="evenodd" d="M1962.08 1122.03C1938.9 1104.25 1939.07 1068.37 1936.4 1039.73C1933.67 1010.47 1925.15 972.147 1946.63 956.172C1970.34 938.535 2008.32 972.881 2037.07 964.847C2059.61 958.551 2061.93 913.752 2086.04 917.215C2109.66 920.607 2112.1 960.438 2130.37 978.244C2147.38 994.822 2180.66 993.716 2187.68 1016.29C2194.77 1039.1 2170.61 1055.57 2160.44 1074.96C2153.02 1089.09 2145.87 1102.42 2136.05 1114.68C2124.72 1128.84 2116.85 1150.07 2098.6 1152.19C2080.37 1154.3 2066.15 1129.05 2047.54 1124.94C2018.51 1118.53 1986.86 1141.03 1962.08 1122.03Z" fill="#F1EEE9"/>
<path fill-rule="evenodd" clip-rule="evenodd" d="M2294.08 1838.03C2270.9 1820.25 2271.07 1784.37 2268.4 1755.73C2265.67 1726.47 2257.15 1688.15 2278.63 1672.17C2302.34 1654.53 2340.32 1688.88 2369.07 1680.85C2391.61 1674.55 2393.93 1629.75 2418.04 1633.21C2441.66 1636.61 2444.1 1676.44 2462.37 1694.24C2479.38 1710.82 2512.66 1709.72 2519.68 1732.29C2526.77 1755.1 2502.61 1771.57 2492.44 1790.96C2485.02 1805.09 2477.87 1818.42 2468.05 1830.68C2456.72 1844.84 2448.85 1866.07 2430.6 1868.19C2412.37 1870.3 2398.15 1845.05 2379.54 1840.94C2350.51 1834.53 2318.86 1857.03 2294.08 1838.03Z" fill="#F1EEE9"/>
<path fill-rule="evenodd" clip-rule="evenodd" d="M83.0827 728.029C59.8992 710.255 60.0677 674.369 57.3993 645.729C54.6735 616.474 46.1521 578.147 67.6295 562.172C91.3427 544.535 129.323 578.881 158.074 570.847C180.605 564.551 182.926 519.752 207.04 523.215C230.662 526.607 233.104 566.438 251.37 584.244C268.376 600.822 301.661 599.716 308.68 622.293C315.771 645.103 291.614 661.572 281.438 680.965C274.024 695.094 266.871 708.423 257.054 720.683C245.716 734.843 237.85 756.072 219.605 758.186C201.368 760.3 187.149 735.052 168.543 730.942C139.509 724.529 107.865 747.03 83.0827 728.029Z" fill="#F0BFA3"/>
<path fill-rule="evenodd" clip-rule="evenodd" d="M2241.7 685.932C2239.18 661.952 2237.91 636.724 2248.85 615.406C2260.25 593.185 2278.54 568.765 2302.8 566.868C2327.99 564.898 2341.65 601.781 2366.54 606.204C2390.76 610.507 2413.88 582.859 2437.24 590.752C2461.97 599.109 2488.76 621.059 2490.05 647.935C2491.4 676.181 2454.28 689.677 2443.23 715.558C2434.15 736.832 2450.51 769.185 2432.39 782.971C2413.87 797.062 2387.69 769.471 2365.3 774.861C2338.69 781.266 2321.89 823.197 2295.51 815.925C2270.94 809.154 2272.64 770.723 2262.63 746.562C2254.3 726.427 2243.99 707.71 2241.7 685.932Z" fill="#F1EEE9"/>
<path fill-rule="evenodd" clip-rule="evenodd" d="M1712.7 1621.93C1710.18 1597.95 1708.91 1572.72 1719.85 1551.41C1731.25 1529.19 1749.54 1504.76 1773.8 1502.87C1798.99 1500.9 1812.65 1537.78 1837.54 1542.2C1861.76 1546.51 1884.88 1518.86 1908.24 1526.75C1932.97 1535.11 1959.76 1557.06 1961.05 1583.93C1962.4 1612.18 1925.28 1625.68 1914.23 1651.56C1905.15 1672.83 1921.51 1705.18 1903.39 1718.97C1884.87 1733.06 1858.69 1705.47 1836.3 1710.86C1809.69 1717.27 1792.89 1759.2 1766.51 1751.92C1741.94 1745.15 1743.64 1706.72 1733.63 1682.56C1725.3 1662.43 1714.99 1643.71 1712.7 1621.93Z" fill="#F1EEE9"/>
<path fill-rule="evenodd" clip-rule="evenodd" d="M466.701 173.932C464.18 149.952 462.907 124.724 473.846 103.406C485.249 81.1851 503.544 56.7648 527.799 54.8683C552.995 52.8983 566.645 89.7809 591.543 94.2039C615.765 98.5069 638.881 70.8592 662.24 78.7516C686.975 87.1092 713.759 109.059 715.049 135.935C716.405 164.181 679.282 177.677 668.231 203.558C659.147 224.832 675.507 257.185 657.39 270.971C638.873 285.062 612.688 257.471 590.299 262.861C563.695 269.266 546.892 311.197 520.509 303.925C495.945 297.154 497.636 258.723 487.635 234.562C479.3 214.427 468.99 195.71 466.701 173.932Z" fill="#F0BFA3"/>
<path fill-rule="evenodd" clip-rule="evenodd" d="M2386.15 1234.97C2415.72 1231.6 2449.79 1224.64 2472.72 1244.52C2495.53 1264.3 2489.08 1301.83 2497.59 1331.57C2505.84 1360.36 2528.5 1386.59 2521.77 1415.82C2514.92 1445.54 2492.24 1478.24 2463.21 1480.88C2431.89 1483.73 2416.92 1434.87 2386.15 1428.14C2365.74 1423.67 2349.89 1455.48 2329.38 1451.57C2306.46 1447.21 2284.46 1429.9 2275.94 1407.15C2267.31 1384.09 2279.85 1359.34 2285.87 1335.38C2292.32 1309.72 2293.93 1281.12 2312.22 1262.79C2331.64 1243.35 2359.47 1238 2386.15 1234.97Z" fill="#F0BFA3"/>
<path fill-rule="evenodd" clip-rule="evenodd" d="M1015.19 559.846C1044.69 547.178 1082.95 568.02 1104.99 590.131C1126.06 611.26 1115.61 645.392 1127.1 672.094C1137.75 696.839 1183.14 716.439 1169.45 739.874C1153.18 767.749 1104.65 754.137 1072.63 765.39C1059.03 770.169 1049.46 780.414 1036.53 786.59C1020.47 794.269 1005.77 806.488 987.689 805.985C967.943 805.436 944.017 799.936 934.831 783.761C925.329 767.028 946.092 747.633 943.884 728.844C941.801 711.129 917.72 697.505 922.668 680.283C927.487 663.512 955.804 663.683 966.671 649.537C988.04 621.722 981.729 574.217 1015.19 559.846Z" fill="#F0BFA3"/>
<path fill-rule="evenodd" clip-rule="evenodd" d="M1605.19 1212.85C1634.69 1200.18 1672.95 1221.02 1694.99 1243.13C1716.06 1264.26 1705.61 1298.39 1717.1 1325.09C1727.75 1349.84 1773.14 1369.44 1759.45 1392.87C1743.18 1420.75 1694.65 1407.14 1662.63 1418.39C1649.03 1423.17 1639.46 1433.41 1626.53 1439.59C1610.47 1447.27 1595.77 1459.49 1577.69 1458.98C1557.94 1458.44 1534.02 1452.94 1524.83 1436.76C1515.33 1420.03 1536.09 1400.63 1533.88 1381.84C1531.8 1364.13 1507.72 1350.5 1512.67 1333.28C1517.49 1316.51 1545.8 1316.68 1556.67 1302.54C1578.04 1274.72 1571.73 1227.22 1605.19 1212.85Z" fill="#F0BFA3"/>
<path fill-rule="evenodd" clip-rule="evenodd" d="M1142.82 1084.1C1183.2 1087.16 1167.32 1141.48 1183.38 1170.02C1188.92 1179.85 1195.79 1188.96 1205.97 1196.29C1225.67 1210.48 1268.61 1211.7 1269.98 1232.39C1271.21 1251.11 1223.44 1247.38 1210.39 1263.24C1193.24 1284.06 1217.87 1326.82 1186.87 1333.33C1155.57 1339.9 1145.25 1296.34 1118.21 1282.58C1102.21 1274.44 1076.75 1281.7 1063.9 1270.77C1051.05 1259.82 1060.4 1242.08 1054.26 1228.14C1046.1 1209.62 1010.81 1193.66 1022.27 1176.2C1033.94 1158.44 1078.35 1177.49 1096.74 1163.45C1124.04 1142.58 1104.44 1081.19 1142.82 1084.1Z" fill="#F1EEE9"/>
<path fill-rule="evenodd" clip-rule="evenodd" d="M1513.35 633.424C1534.05 637.545 1538.21 670.683 1555.9 683.24C1572.31 694.887 1595.38 689.223 1610.73 702.528C1628.97 718.343 1652.97 739.226 1649.7 764.569C1646.26 791.195 1610.71 795.799 1595.91 817.168C1583.75 834.714 1588.85 864.76 1572.02 876.719C1555.3 888.61 1533.25 875.694 1513.35 875.849C1493.28 876.005 1470.46 890.602 1454.19 877.637C1437.55 864.374 1443.74 834.877 1435.75 814.008C1428.99 796.35 1415.79 782.969 1410.91 764.569C1404.89 741.821 1393.92 715.833 1404.27 695.071C1414.59 674.379 1441.85 675.095 1460.9 664.328C1478.85 654.187 1493.51 629.474 1513.35 633.424Z" fill="#F1EEE9"/>
<path fill-rule="evenodd" clip-rule="evenodd" d="M1447.35 1785.42C1468.05 1789.55 1472.21 1822.68 1489.9 1835.24C1506.31 1846.89 1529.38 1841.22 1544.73 1854.53C1562.97 1870.34 1586.97 1891.23 1583.7 1916.57C1580.26 1943.19 1544.71 1947.8 1529.91 1969.17C1517.75 1986.71 1522.85 2016.76 1506.02 2028.72C1489.3 2040.61 1467.25 2027.69 1447.35 2027.85C1427.28 2028 1404.46 2042.6 1388.19 2029.64C1371.55 2016.37 1377.74 1986.88 1369.75 1966.01C1362.99 1948.35 1349.79 1934.97 1344.91 1916.57C1338.89 1893.82 1327.92 1867.83 1338.27 1847.07C1348.59 1826.38 1375.85 1827.09 1394.9 1816.33C1412.85 1806.19 1427.51 1781.47 1447.35 1785.42Z" fill="#F1EEE9"/>
</g>
<defs>
<clipPath id="clip0_181_51">
<rect width="2668" height="1963" fill="white"/>
</clipPath>
</defs>
</svg>
