<svg width="151" height="160" viewBox="0 0 151 160" fill="none" xmlns="http://www.w3.org/2000/svg">
<path d="M112.835 20.3264C120.635 31.5264 123.535 44.2264 130.735 56.0264C137.835 67.9264 149.235 78.9264 150.135 90.1264C151.035 101.226 141.435 112.426 132.335 125.326C123.135 138.226 114.435 152.726 102.035 157.726C89.5347 162.726 73.5347 158.226 60.7347 150.626C48.0347 143.026 38.6347 132.426 30.9347 121.526C23.2347 110.626 17.1347 99.4264 10.4347 85.2264C3.73468 71.1264 -3.56532 54.1264 1.93468 43.2264C7.43468 32.3264 25.6347 27.6264 40.7347 19.7264C55.8347 11.8264 67.6347 0.726435 79.9347 0.0264352C92.3347 -0.573565 105.035 9.12644 112.835 20.3264Z" fill="#F0BFA3"/>
</svg>
