<svg width="190" height="83" viewBox="0 0 190 83" fill="none" xmlns="http://www.w3.org/2000/svg">
<path d="M20.4 82.2V63.72C16.3467 63.56 12.8 62.8133 9.76 61.48C6.77333 60.0933 4.45333 57.8533 2.8 54.76C1.14667 51.6667 0.32 47.48 0.32 42.2V20.12H7.28V42.44C7.28 46.44 7.84 49.5333 8.96 51.72C10.1333 53.9067 11.7067 55.4267 13.68 56.28C15.7067 57.1333 17.9467 57.6667 20.4 57.88V2.2H27.28V57.8C30.32 57.5333 32.88 56.76 34.96 55.48C37.0933 54.2 38.72 52.3333 39.84 49.88C40.96 47.4267 41.52 44.3333 41.52 40.6C41.52 38.1467 41.4133 35.8267 41.2 33.64C41.04 31.4533 40.7733 29.2667 40.4 27.08C40.0267 24.8933 39.5467 22.5733 38.96 20.12H45.92C46.7733 23.6933 47.3867 27.08 47.76 30.28C48.1867 33.48 48.4 36.84 48.4 40.36C48.4 45.8533 47.4667 50.28 45.6 53.64C43.7867 56.9467 41.28 59.4 38.08 61C34.9333 62.5467 31.3333 63.4533 27.28 63.72V82.2H20.4ZM76.4819 63.8C72.9085 63.8 70.0285 63.3467 67.8419 62.44C65.7085 61.48 64.0819 60.1467 62.9619 58.44C61.8952 56.68 61.1752 54.6267 60.8019 52.28C60.4285 49.88 60.2419 47.24 60.2419 44.36V20.12H67.2819V44.12C67.2819 47.16 67.5219 49.72 68.0019 51.8C68.4819 53.8267 69.4152 55.3733 70.8019 56.44C72.2419 57.5067 74.3219 58.04 77.0419 58.04C79.6019 58.04 81.7885 57.3733 83.6019 56.04C85.4152 54.7067 86.7752 52.6533 87.6819 49.88C88.6419 47.1067 89.1219 43.5867 89.1219 39.32C89.1219 35.5867 88.9085 32.2533 88.4819 29.32C88.0552 26.3867 87.4419 23.32 86.6419 20.12H93.6819C94.2685 22.2 94.7485 24.2533 95.1219 26.28C95.4952 28.2533 95.7619 30.3067 95.9219 32.44C96.1352 34.5733 96.2419 36.9733 96.2419 39.64C96.2419 47.9067 94.5085 54.0133 91.0419 57.96C87.5752 61.8533 82.7219 63.8 76.4819 63.8ZM142.092 82.2C140.012 82.2 138.305 81.88 136.972 81.24C135.639 80.6533 134.465 79.6933 133.452 78.36C132.492 77.0267 131.505 75.2933 130.492 73.16L111.052 32.36C110.039 30.28 109.132 28.6267 108.332 27.4C107.585 26.1733 106.519 25.56 105.132 25.56C104.652 25.56 104.172 25.6133 103.692 25.72C103.265 25.7733 102.865 25.88 102.492 26.04V20.52C103.079 20.36 103.639 20.2267 104.172 20.12C104.705 19.96 105.532 19.88 106.652 19.88C108.252 19.88 109.559 20.12 110.572 20.6C111.639 21.08 112.599 21.9067 113.452 23.08C114.359 24.2 115.292 25.8 116.252 27.88L136.092 69.08C136.892 70.68 137.585 72.0133 138.172 73.08C138.812 74.2 139.532 75.0267 140.332 75.56C141.132 76.1467 142.172 76.44 143.452 76.44C144.145 76.44 144.785 76.3867 145.372 76.28C146.012 76.2267 146.572 76.1733 147.052 76.12V81.56C146.679 81.6667 146.225 81.7733 145.692 81.88C145.212 81.9867 144.679 82.0667 144.092 82.12C143.505 82.1733 142.839 82.2 142.092 82.2ZM101.612 82.2L122.492 49.32L125.292 55.8L109.132 82.2H101.612ZM126.652 55.08L123.852 48.6L139.532 20.12H147.052L126.652 55.08ZM182.872 82.2V35.56C182.872 32.1467 182.125 29.5867 180.632 27.88C179.139 26.12 176.819 25.24 173.672 25.24C170.685 25.24 168.285 25.8533 166.472 27.08C164.712 28.2533 163.432 29.9867 162.632 32.28C161.885 34.5733 161.512 37.4 161.512 40.76V63H154.472V20.12H160.152L161.192 25.96H161.592C162.552 24.4667 163.699 23.24 165.032 22.28C166.365 21.2667 167.859 20.52 169.512 20.04C171.165 19.56 172.899 19.32 174.712 19.32C178.019 19.32 180.792 19.88 183.032 21C185.272 22.0667 186.952 23.7733 188.072 26.12C189.245 28.4133 189.832 31.4 189.832 35.08V82.2H182.872ZM165.672 14.52V13.56L169.512 0.919998H177.992V1.72L170.392 14.52H165.672Z" fill="#F0BFA3" fill-opacity="0.7"/>
</svg>
